<?xml version="1.0" encoding="utf-8"?>
<!-- Generator: Adobe Illustrator 19.0.0, SVG Export Plug-In . SVG Version: 6.00 Build 0)  -->
<svg version="1.1" id="Layer_1" xmlns="http://www.w3.org/2000/svg" xmlns:xlink="http://www.w3.org/1999/xlink" x="0px" y="0px"
	 viewBox="0 0 500 500" style="enable-background:new 0 0 500 500;" xml:space="preserve">
<style type="text/css">
	.st0{fill:#333333;}
</style>
<g id="XMLID_1_">
	<path id="XMLID_2_" class="st0" d="M250,80.5c93.6,0,169.5,75.9,169.5,169.5S343.6,419.5,250,419.5S80.5,343.6,80.5,250
		S156.4,80.5,250,80.5 M250,67.5C149.4,67.5,67.5,149.4,67.5,250S149.4,432.5,250,432.5S432.5,350.6,432.5,250S350.6,67.5,250,67.5
		 M279.7,103.9c-14.9-2.7-50.8,51.9-62.7,85.2c-0.9,2.5-3,11.8-3,14.2c0,0,9.3,20,11.9,24.7c-4.3-2.3-13.3-19.6-13.3-19.6
		c-4.3,8.2-8.5,46.1-7.1,53.1c0,0,9.6,14.3,13.4,17.9c-5.1-1.7-13.8-13.3-13.8-13.3c-1.6,5-1.3,15.4-0.5,18.9
		c6.5,9.5,15.1,10.5,15.1,10.5s-9.5,94.4,4.9,101.4c8.9-1.9,11.1-105.4,11.1-105.4s10.8,0.8,13.2-1.9c5.5-3.8,18.3-43.1,18.5-48.8
		c0,0-14.8,2.8-22.1,5.6c5.5-5.4,22.9-9.1,22.9-9.1c4.7-5.7,14.7-44.3,15.7-56.2c0.3-3,0.8-6.6,0.4-12c0,0-14.2,3.1-17.1,2
		c3-0.3,17.5-5.9,17.5-5.9C287.1,142.3,287.9,105.4,279.7,103.9z M227.8,348.7c-1.1,27.8-1.8,35.7-3,42.2c-0.5,1.2-1.1,1.4-1.6-0.1
		c-5-22.8-4.6-194.5,51.9-272.7C242.2,178.1,227.3,293.3,227.8,348.7z"/>
</g>
</svg>
